<svg width="26" height="26" viewBox="0 0 26 26" fill="none" xmlns="http://www.w3.org/2000/svg">
<path d="M13.0004 9.6154C11.1367 9.6154 9.61579 11.1363 9.61579 13C9.61579 14.8636 11.1367 16.3845 13.0004 16.3845C14.864 16.3845 16.3849 14.8636 16.3849 13C16.3849 11.1363 14.864 9.6154 13.0004 9.6154ZM23.1515 13C23.1515 11.5984 23.1642 10.2095 23.0855 8.81052C23.0068 7.18552 22.6361 5.74333 21.4478 4.55505C20.257 3.36423 18.8174 2.99607 17.1924 2.91736C15.7908 2.83865 14.4019 2.85134 13.0029 2.85134C11.6013 2.85134 10.2125 2.83865 8.81345 2.91736C7.18845 2.99607 5.74626 3.36677 4.55798 4.55505C3.36716 5.74587 2.999 7.18552 2.92029 8.81052C2.84158 10.2121 2.85427 11.6009 2.85427 13C2.85427 14.399 2.84158 15.7904 2.92029 17.1894C2.999 18.8144 3.3697 20.2566 4.55798 21.4449C5.7488 22.6357 7.18845 23.0039 8.81345 23.0826C10.215 23.1613 11.6039 23.1486 13.0029 23.1486C14.4045 23.1486 15.7933 23.1613 17.1924 23.0826C18.8174 23.0039 20.2595 22.6332 21.4478 21.4449C22.6386 20.2541 23.0068 18.8144 23.0855 17.1894C23.1668 15.7904 23.1515 14.4015 23.1515 13ZM13.0004 18.2076C10.1185 18.2076 7.79275 15.8818 7.79275 13C7.79275 10.1181 10.1185 7.79236 13.0004 7.79236C15.8822 7.79236 18.208 10.1181 18.208 13C18.208 15.8818 15.8822 18.2076 13.0004 18.2076ZM18.4213 8.79529C17.7484 8.79529 17.2051 8.25193 17.2051 7.57907C17.2051 6.90622 17.7484 6.36286 18.4213 6.36286C19.0941 6.36286 19.6375 6.90622 19.6375 7.57907C19.6377 7.73885 19.6064 7.89709 19.5453 8.04474C19.4843 8.19238 19.3947 8.32654 19.2817 8.43951C19.1687 8.55249 19.0346 8.64207 18.8869 8.70312C18.7393 8.76417 18.581 8.79549 18.4213 8.79529Z" fill="white"/>
</svg>
