<svg width="22" height="19" viewBox="0 0 22 19" fill="none" xmlns="http://www.w3.org/2000/svg">
<path d="M21.84 2.12917C21.6939 2.43759 21.422 2.82717 21.0243 3.29789C20.6267 3.76861 20.1357 4.18254 19.5513 4.53965C19.5675 4.66953 19.5797 4.79125 19.5878 4.90488C19.6509 6.6543 19.2318 8.46937 18.6504 9.98151C17.5235 12.793 15.7968 15.0557 13.3304 16.5921C10.7585 18.0674 7.76319 18.3811 5.00347 18.1138C3.17135 17.9034 1.3656 17.3051 0 16.1782C2.49764 16.4767 4.82855 15.6271 6.6713 14.2546C4.62431 14.3064 3.13702 12.8256 2.4348 11.1137C2.75135 11.1967 3.0825 11.1867 3.38436 11.1624C3.75593 11.1275 4.10865 11.0926 4.45567 11.0163C3.15042 10.5952 2.00833 9.82102 1.41219 8.65452C1.06252 7.9154 0.904631 7.21156 0.9009 6.41447C1.51251 6.73649 2.24821 7.05034 2.92177 7.02317C1.90454 6.16143 1.08903 5.06013 0.937427 3.797C0.841714 2.74382 1.10525 1.78244 1.48527 0.887377C3.00691 2.55972 4.71422 3.93598 6.68351 4.78312C8.03028 5.33462 9.37322 5.62956 10.7618 5.63529C10.6015 4.39503 10.7261 3.19553 11.3096 2.17782C11.9963 1.08365 12.9982 0.44882 14.1218 0.132552C15.7296 -0.279723 17.2976 0.302635 18.2853 1.42301C19.3504 1.30797 20.3707 0.835451 21.1827 0.351685C20.8377 1.39657 20.1658 2.43548 19.1862 2.93261C20.1189 2.75992 21.0089 2.48381 21.84 2.12917Z" fill="white"/>
</svg>
