<svg width="27" height="15" viewBox="0 0 27 15" fill="none" xmlns="http://www.w3.org/2000/svg">
<path fill-rule="evenodd" clip-rule="evenodd" d="M24.0328 10.5147C24.0328 10.5147 26.2158 12.6098 26.7558 13.5792C26.7663 13.5932 26.7745 13.6087 26.7801 13.6252C27.0002 13.9833 27.0541 14.264 26.9461 14.4713C26.7639 14.8137 26.1469 14.9856 25.9377 15H22.0794C21.8107 15 21.2518 14.9318 20.5714 14.4753C20.0517 14.1224 19.5346 13.5412 19.0338 12.9732C18.2859 12.1296 17.6392 11.3976 16.9845 11.3976C16.9018 11.3974 16.8197 11.4107 16.7415 11.4369C16.246 11.5891 15.6169 12.2752 15.6169 14.1027C15.6169 14.6747 15.1525 15 14.8272 15H13.06C12.4579 15 9.32323 14.7953 6.54358 11.9473C3.13753 8.46029 0.0784217 1.46537 0.0487216 1.40371C-0.141629 0.951111 0.257972 0.704478 0.689972 0.704478H4.58608C5.10853 0.704478 5.27863 1.01146 5.39743 1.28695C5.53513 1.60311 6.04543 2.86776 6.88243 4.28853C8.23783 6.60005 9.07078 7.54067 9.73633 7.54067C9.86137 7.54103 9.9843 7.50935 10.0927 7.44884C10.9621 6.98443 10.8001 3.96712 10.7596 3.34529C10.7596 3.22459 10.7583 1.99799 10.3128 1.40502C9.99418 0.979972 9.45148 0.814675 9.12343 0.754329C9.21118 0.631013 9.39748 0.442102 9.63643 0.330593C10.2318 0.0419799 11.3077 0 12.3756 0H12.9682C14.1265 0.0157425 14.4262 0.0878956 14.8474 0.191534C15.6952 0.388315 15.7114 0.92225 15.6372 2.74051C15.6156 3.26001 15.5926 3.84511 15.5926 4.53385C15.5926 4.68078 15.5859 4.84476 15.5859 5.01137C15.5602 5.94411 15.5265 6.99493 16.2042 7.42654C16.2921 7.47974 16.3936 7.50792 16.4971 7.50787C16.732 7.50787 17.4354 7.50787 19.3429 4.32657C20.1799 2.92155 20.8279 1.26465 20.8725 1.14002C20.9103 1.07049 21.0237 0.875022 21.1614 0.796309C21.2593 0.745664 21.3691 0.720365 21.48 0.722844H26.0632C26.5627 0.722844 26.9016 0.79631 26.9678 0.979972C27.0784 1.27777 26.9461 2.1869 24.8536 4.93659C24.5013 5.39444 24.1921 5.79063 23.9208 6.13696C22.024 8.55606 22.024 8.67807 24.0328 10.5147Z" fill="white"/>
</svg>
