<svg width="26" height="19" viewBox="0 0 26 19" fill="none" xmlns="http://www.w3.org/2000/svg">
<path d="M25.4494 2.80153C25.2984 2.26181 25.0106 1.77022 24.6139 1.37436C24.2172 0.978501 23.725 0.69178 23.1849 0.541963C21.1578 2.59094e-05 13.0084 2.60404e-05 13.0084 2.60404e-05C13.0084 2.60404e-05 4.87445 -0.0129741 2.82613 0.541963C2.28696 0.692438 1.79572 0.97946 1.39989 1.37528C1.00407 1.77111 0.717046 2.26235 0.566571 2.80153C0.181608 4.87683 -0.00799205 6.98365 0.000258036 9.09434C-0.00349823 11.1949 0.186072 13.2913 0.566571 15.3571C0.717532 15.8966 1.00464 16.3882 1.40033 16.7847C1.79601 17.1812 2.28699 17.4694 2.82613 17.6215C4.85332 18.1635 13.0084 18.1635 13.0084 18.1635C13.0084 18.1635 21.1374 18.1635 23.1849 17.6215C23.7249 17.4701 24.2169 17.1822 24.6135 16.7856C25.01 16.389 25.2979 15.8971 25.4494 15.3571C25.8223 13.2925 26.0043 11.193 25.9913 9.09434C26.0043 6.98184 25.8264 4.87909 25.4494 2.80153ZM10.4051 12.9838V5.18784L17.1887 9.09434L10.4051 12.9838Z" fill="white"/>
</svg>
