<svg width="24" height="14" viewBox="0 0 24 14" fill="none" xmlns="http://www.w3.org/2000/svg">
<path fill-rule="evenodd" clip-rule="evenodd" d="M21.3625 9.81371C21.3625 9.81371 23.3029 11.7691 23.7829 12.674C23.7923 12.687 23.7996 12.7015 23.8045 12.7168C24.0001 13.0511 24.0481 13.3131 23.9521 13.5066C23.7901 13.8261 23.2417 13.9865 23.0557 14H19.6261C19.3873 14 18.8905 13.9363 18.2857 13.5102C17.8237 13.1809 17.3641 12.6384 16.9189 12.1083C16.2541 11.321 15.6793 10.6377 15.0973 10.6377C15.0238 10.6376 14.9508 10.65 14.8813 10.6745C14.4409 10.8165 13.8817 11.4569 13.8817 13.1625C13.8817 13.6963 13.4689 14 13.1797 14H11.6089C11.0737 14 8.28732 13.809 5.81651 11.1508C2.78891 7.89628 0.0697081 1.36768 0.0433081 1.31013C-0.125892 0.887704 0.229308 0.657513 0.613309 0.657513H4.07651C4.54091 0.657513 4.69211 0.944027 4.79771 1.20115C4.92011 1.49624 5.37371 2.67658 6.11771 4.00262C7.32252 6.16005 8.06292 7.03796 8.65452 7.03796C8.76566 7.03829 8.87493 7.00873 8.97132 6.95225C9.74412 6.5188 9.60012 3.70264 9.56412 3.12227C9.56412 3.00962 9.56292 1.86479 9.16692 1.31135C8.88372 0.914641 8.40132 0.760364 8.10972 0.70404C8.18772 0.588945 8.35332 0.412629 8.56572 0.308553C9.09492 0.0391812 10.0513 0 11.0005 0H11.5273C12.5569 0.014693 12.8233 0.0820359 13.1977 0.178765C13.9513 0.362428 13.9657 0.860766 13.8997 2.55781C13.8805 3.04268 13.8601 3.58877 13.8601 4.23159C13.8601 4.36872 13.8541 4.52178 13.8541 4.67728C13.8313 5.54784 13.8013 6.5286 14.4037 6.93143C14.4819 6.9811 14.5721 7.0074 14.6641 7.00735C14.8729 7.00735 15.4981 7.00735 17.1937 4.03813C17.9377 2.72678 18.5137 1.18034 18.5533 1.06402C18.5869 0.999125 18.6877 0.816687 18.8101 0.743222C18.8972 0.695953 18.9947 0.672341 19.0933 0.674655H23.1673C23.6113 0.674655 23.9125 0.743222 23.9713 0.914641C24.0697 1.19258 23.9521 2.04111 22.0921 4.60749C21.7789 5.03481 21.5041 5.40458 21.2629 5.72783C19.5769 7.98566 19.5769 8.09953 21.3625 9.81371Z" fill="#F68446"/>
</svg>
