<svg width="19" height="16" viewBox="0 0 19 16" fill="none" xmlns="http://www.w3.org/2000/svg">
<path d="M19 1.8718C18.8729 2.14294 18.6364 2.48543 18.2904 2.89925C17.9445 3.31306 17.5173 3.67696 17.0089 3.9909C17.023 4.10508 17.0336 4.21209 17.0407 4.31198C17.0955 5.84993 16.731 7.4456 16.2252 8.77496C15.2448 11.2466 13.7426 13.2358 11.597 14.5864C9.35951 15.8834 6.75369 16.1592 4.35284 15.9243C2.75896 15.7393 1.18802 15.2133 0 14.2226C2.17286 14.485 4.20066 13.7381 5.80379 12.5315C4.02298 12.5771 2.7291 11.2753 2.11818 9.77027C2.39357 9.84322 2.68166 9.83442 2.94427 9.81311C3.26752 9.78242 3.57437 9.75178 3.87627 9.68469C2.74075 9.31446 1.74718 8.63387 1.22856 7.60837C0.92435 6.9586 0.786996 6.33983 0.78375 5.6391C1.31583 5.92219 1.95586 6.1981 2.54184 6.17421C1.65688 5.41664 0.947419 4.44846 0.815528 3.33802C0.73226 2.41215 0.961527 1.56698 1.29213 0.780112C2.6159 2.2503 4.1012 3.4602 5.81441 4.20494C6.98605 4.68978 8.15436 4.94907 9.36236 4.95411C9.22292 3.86376 9.33134 2.80926 9.83896 1.91457C10.4364 0.952659 11.3079 0.394567 12.2855 0.116529C13.6841 -0.245911 15.0483 0.266052 15.9075 1.251C16.8341 1.14986 17.7217 0.734462 18.4282 0.309173C18.128 1.22775 17.5435 2.14109 16.6913 2.57812C17.5027 2.42631 18.277 2.18357 19 1.8718Z" fill="#F68446"/>
</svg>
