<svg width="23" height="16" viewBox="0 0 23 16" fill="none" xmlns="http://www.w3.org/2000/svg">
<path d="M22.5199 2.46783C22.3863 1.9924 22.1316 1.55937 21.7806 1.21066C21.4295 0.861951 20.994 0.609382 20.5161 0.47741C18.7223 2.28233e-05 11.511 2.29387e-05 11.511 2.29387e-05C11.511 2.29387e-05 4.31334 -0.0114288 2.50081 0.47741C2.0237 0.609962 1.58901 0.862795 1.23875 1.21147C0.888487 1.56015 0.634505 1.99288 0.501352 2.46783C0.160703 4.29595 -0.00707207 6.15182 0.000228333 8.01111C-0.00309554 9.86145 0.164653 11.7082 0.501352 13.5279C0.634936 14.0031 0.888993 14.4362 1.23913 14.7855C1.58927 15.1348 2.02373 15.3886 2.50081 15.5226C4.29465 16 11.511 16 11.511 16C11.511 16 18.7043 16 20.5161 15.5226C20.9939 15.3892 21.4292 15.1356 21.7802 14.7863C22.1311 14.4369 22.3858 14.0036 22.5199 13.5279C22.8499 11.7092 23.0109 9.85982 22.9994 8.01111C23.0109 6.15023 22.8535 4.29794 22.5199 2.46783ZM9.20738 11.4373V4.56991L15.2101 8.01111L9.20738 11.4373Z" fill="#F68446"/>
</svg>
