<svg xmlns="http://www.w3.org/2000/svg" viewBox="0 0 47 47"><defs><style>.cls-1{fill:#0dc042;}.cls-2{fill:none;stroke:#fff;stroke-linecap:round;stroke-linejoin:round;stroke-width:2px;}.cls-3{fill:#fff;}</style></defs><title>Ресурс 11</title><g id="Слой_2" data-name="Слой 2"><g id="Слой_1-2" data-name="Слой 1"><circle class="cls-1" cx="23.5" cy="23.5" r="23.5"/><path class="cls-2" d="M24,11.57A11.34,11.34,0,0,0,14,28.31h0l-2.39,7.13,6.88-2.59A11.34,11.34,0,1,0,24,11.57Z"/><path class="cls-3" d="M27.95,29.23h0l1.1-1.06a1.31,1.31,0,0,0,.4-.87h0a1.32,1.32,0,0,0-.47-1.1L27.54,25a1.34,1.34,0,0,0-1.79.06h0a1,1,0,0,1-1.26.1,10.87,10.87,0,0,1-2.65-2.64,1,1,0,0,1,.12-1.3l0,0a1.34,1.34,0,0,0,.13-1.78L21,17.92a1.32,1.32,0,0,0-2-.15l-1.29,1.31a1,1,0,0,0-.07.86,16.87,16.87,0,0,0,3.85,5.45,16.87,16.87,0,0,0,5.29,4.06,1,1,0,0,0,.86,0Z"/></g></g></svg>