<svg xmlns="http://www.w3.org/2000/svg" viewBox="0 0 47 47"><defs><style>.cls-1{fill:#7b519d;}.cls-2{fill:#fff;}</style></defs><title>Ресурс 9</title><g id="Слой_2" data-name="Слой 2"><g id="Слой_1-2" data-name="Слой 1"><circle class="cls-1" cx="23.5" cy="23.5" r="23.5"/><path class="cls-2" d="M28.18,24,28,24a.75.75,0,0,1-.55-.91,2.62,2.62,0,0,0-3.06-3.19.75.75,0,0,1-.3-1.47,4.17,4.17,0,0,1,.83-.08,4.12,4.12,0,0,1,4,5.1A.75.75,0,0,1,28.18,24Z"/><path class="cls-2" d="M31,24.9l-.21,0a.75.75,0,0,1-.52-.93A5.53,5.53,0,0,0,23.8,17a.75.75,0,0,1-.3-1.47,7,7,0,0,1,8.18,8.81A.75.75,0,0,1,31,24.9Z"/><path class="cls-2" d="M33.86,25.87a.75.75,0,0,1-.72-1A8.6,8.6,0,0,0,23.18,14a.75.75,0,1,1-.3-1.47,10.1,10.1,0,0,1,11.7,12.79A.75.75,0,0,1,33.86,25.87Z"/><path class="cls-2" d="M29,34.24h0l1.61-1.55a1.92,1.92,0,0,0,.59-1.27h0a1.92,1.92,0,0,0-.69-1.61l-2.1-1.75a2,2,0,0,0-2.61.09h0a1.45,1.45,0,0,1-1.84.15,15.89,15.89,0,0,1-3.88-3.86,1.47,1.47,0,0,1,.18-1.91l.07-.07a2,2,0,0,0,.19-2.61l-1.67-2.17A1.93,1.93,0,0,0,16,17.48l-1.89,1.91a1.51,1.51,0,0,0-.1,1.26c1.2,3.22,3.44,5.58,5.64,8s4.56,4.62,7.74,5.94a1.51,1.51,0,0,0,1.26-.05Z"/></g></g></svg>