<svg width="139" height="140" viewBox="0 0 139 140" fill="none" xmlns="http://www.w3.org/2000/svg">
<path d="M132.396 43.7923C132.943 43.7226 133.444 44.1102 133.514 44.658L134.651 53.586C134.72 54.1338 134.333 54.6345 133.785 54.7043C133.237 54.774 132.736 54.3864 132.667 53.8386L131.656 45.9026L123.72 46.913C123.172 46.9827 122.672 46.5951 122.602 46.0473C122.532 45.4994 122.92 44.9987 123.468 44.929L132.396 43.7923ZM2.53385 91.2679L1.55648 91.0563L1.9796 89.1016L2.95697 89.3131L2.53385 91.2679ZM133.313 45.3965C116.905 66.592 67.8231 105.4 2.53385 91.2679L2.95697 89.3131C67.2346 103.227 115.608 64.9999 131.731 44.1722L133.313 45.3965Z" fill="#070715"/>
</svg>
