<svg width="163" height="101" viewBox="0 0 163 101" fill="none" xmlns="http://www.w3.org/2000/svg">
<path d="M161.339 76.0426C161.805 76.3388 161.943 76.9568 161.647 77.4229L156.821 85.0196C156.525 85.4858 155.907 85.6236 155.44 85.3275C154.974 85.0313 154.836 84.4134 155.133 83.9472L159.422 77.1946L152.67 72.9048C152.204 72.6087 152.066 71.9907 152.362 71.5245C152.658 71.0583 153.276 70.9205 153.742 71.2167L161.339 76.0426ZM1.21067 17.9094L0.596767 17.12L2.17553 15.8922L2.78944 16.6816L1.21067 17.9094ZM161.02 77.8627C128.845 85.039 51.9021 83.0907 1.21067 17.9094L2.78944 16.6816C52.8453 81.0456 128.87 82.9842 160.585 75.9107L161.02 77.8627Z" fill="#070715"/>
</svg>
